<?xml version="1.0" encoding="UTF-8" standalone="no"?>
<!DOCTYPE svg PUBLIC "-//W3C//DTD SVG 1.1//EN" "http://www.w3.org/Graphics/SVG/1.1/DTD/svg11.dtd">
<svg width="100%" height="100%" viewBox="0 0 512 512" version="1.1" xmlns="http://www.w3.org/2000/svg" xmlns:xlink="http://www.w3.org/1999/xlink" xml:space="preserve" xmlns:serif="http://www.serif.com/" style="fill-rule:evenodd;clip-rule:evenodd;stroke-linejoin:round;stroke-miterlimit:2;">
    <g id="Calque-1" serif:id="Calque 1" transform="matrix(4.166667,0,0,4.166667,0,0)">
        <g transform="matrix(0.122934,0,0,0.122934,-1.95583,-1.844309)">
            <g transform="matrix(-0.346383,0.938093,0.938093,0.346383,584.650777,491.57224)">
                <path d="M153.308,-262.372C153.308,-262.372 133.833,-182.149 133.805,-83.223C133.805,15.676 153.308,95.925 153.308,95.925C153.308,95.925 216.449,15.709 216.46,-83.232C216.446,-182.141 153.308,-262.372 153.308,-262.372" style="fill:rgb(112,168,186);fill-rule:nonzero;"/>
            </g>
            <g transform="matrix(1,0,0,1,417.7954,420.1578)">
                <path d="M0,566.023C-33.405,566.023 -66.378,560.098 -98.004,548.413C-168.9,522.221 -225.354,469.989 -256.966,401.337C-288.576,332.69 -291.569,255.836 -265.394,184.932C-244.957,129.62 -208.517,82.837 -160.013,49.644C-112.557,17.167 -57.217,0 0.024,0C33.435,0 66.415,5.926 98.049,17.612C168.944,43.789 225.396,96.01 257.01,164.657C288.622,233.298 291.615,310.144 265.439,381.04C244.996,436.376 208.55,483.174 160.042,516.375C112.586,548.855 57.245,566.023 0,566.023" style="fill:rgb(216,233,237);fill-rule:nonzero;"/>
            </g>
            <g transform="matrix(1,0,0,1,417.8201,990.4889)">
                <path d="M0,-574.642C-116.815,-574.631 -226.625,-502.834 -269.462,-386.892C-324.406,-238.063 -248.348,-72.856 -99.523,-17.875C-66.701,-5.747 -33.084,0.003 -0.025,0.003C116.79,0.003 226.605,-71.801 269.458,-187.798C324.401,-336.609 248.342,-501.811 99.519,-556.763C66.68,-568.894 33.071,-574.645 0,-574.642M0.026,-574.642L0.026,-566.02C32.908,-566.02 65.377,-560.184 96.533,-548.674C131.821,-535.644 163.497,-516.095 190.681,-490.57C216.94,-465.914 237.931,-436.744 253.07,-403.871C268.208,-370.999 276.73,-336.086 278.4,-300.101C280.128,-262.852 274.399,-226.072 261.371,-190.786C241.238,-136.292 205.349,-90.207 157.582,-57.514C134.571,-41.764 109.401,-29.567 82.769,-21.26C55.879,-12.872 28.023,-8.619 -0.025,-8.619C-32.918,-8.619 -65.389,-14.454 -96.535,-25.962C-131.825,-39 -163.502,-58.555 -190.686,-84.085C-216.945,-108.746 -237.936,-137.92 -253.075,-170.797C-268.213,-203.672 -276.735,-238.589 -278.405,-274.577C-280.133,-311.83 -274.403,-348.613 -261.375,-383.904C-241.25,-438.373 -205.366,-484.44 -157.604,-517.126C-134.594,-532.872 -109.424,-545.068 -82.793,-553.375C-55.903,-561.763 -28.047,-566.017 0.001,-566.02L0.026,-574.642" style="fill:rgb(51,60,98);fill-rule:nonzero;"/>
            </g>
            <g transform="matrix(1,0,0,1,143.44,562.2113)">
                <path d="M0,39.57C-28.23,115.95 -109.227,163.575 -109.227,163.575C-144.259,189.094 -101.711,228.988 -101.711,228.988C-101.711,228.988 -26.58,222.139 -5.358,201.939C15.826,181.735 -8.125,-77.63 311.529,40.436L375.729,-133.449C224.193,-189.418 55.94,-111.956 0,39.57" style="fill:rgb(51,60,98);fill-rule:nonzero;"/>
            </g>
            <g transform="matrix(1,0,0,1,692.2067,638.8347)">
                <path d="M0,165.654C-28.205,242.074 2.436,330.881 2.436,330.881C12.44,372.966 -45.812,375.726 -45.812,375.726C-45.812,375.726 -98.455,321.649 -101.456,292.553C-104.417,263.422 82.4,81.82 -237.237,-36.188L-173.038,-210.072C-21.496,-154.093 55.988,14.119 0,165.654" style="fill:rgb(51,60,98);fill-rule:nonzero;"/>
            </g>
            <g transform="matrix(1,0,0,1,301.4501,494.6055)">
                <path d="M0,144.767C52.247,3.322 149.707,-90.974 217.719,-65.843C285.718,-40.723 298.51,94.276 246.27,235.741L0,144.767Z" style="fill:rgb(112,168,186);fill-rule:nonzero;"/>
            </g>
            <g transform="matrix(1,0,0,1,310.1497,489.9731)">
                <path d="M0,152.606C52.217,11.176 145.787,-84.567 209.019,-61.21C272.223,-37.877 281.129,95.723 228.923,237.173L0,152.606Z" style="fill:rgb(51,60,98);fill-rule:nonzero;"/>
            </g>
            <g transform="matrix(1,0,0,1,590.1681,819.4898)">
                <path d="M0,-156.546C-34.296,-169.247 -70.296,-167.297 -101.467,-154.091C-133.737,-169.369 -167.221,-181.75 -201.657,-191.074C-216.769,-221.399 -242.872,-246.278 -277.126,-258.919C-348.663,-285.349 -427.994,-248.723 -454.394,-177.325C-480.818,-105.758 -444.291,-26.371 -372.766,-0.017C-308.524,23.792 -238.06,-3.52 -205.229,-61.166C-197.812,-58.646 -190.497,-55.928 -183.21,-53.022C-195.786,12.112 -159.942,78.636 -95.683,102.371C-24.132,128.803 55.207,92.215 81.618,20.668C108.001,-50.77 71.495,-130.156 0,-156.546" style="fill:rgb(48,83,118);fill-rule:nonzero;"/>
            </g>
            <g transform="matrix(1,0,0,1,593.5508,810.444)">
                <path d="M0,-156.675C-34.302,-169.32 -70.33,-167.372 -101.507,-154.205C-133.734,-169.442 -167.207,-181.821 -201.652,-191.166C-216.756,-221.47 -242.869,-246.351 -277.131,-259.01C-348.679,-285.424 -428,-248.814 -454.383,-177.378C-480.831,-105.852 -444.342,-26.467 -372.765,-0.051C-308.508,23.701 -238.036,-3.61 -205.233,-61.257C-197.819,-58.701 -190.458,-55.978 -183.233,-53.116C-195.785,12.058 -159.946,78.545 -95.683,102.337C-24.139,128.749 55.224,92.089 81.595,20.574C108.019,-50.879 71.507,-130.228 0,-156.675" style="fill:rgb(112,168,186);fill-rule:nonzero;"/>
            </g>
            <g transform="matrix(-0.938102,-0.346359,-0.346359,0.938102,211.649329,747.586378)">
                <path d="M-30.283,-169.958C17.998,-169.939 57.336,-130.621 57.334,-82.327C57.312,-33.96 18.031,5.389 -30.283,5.421C-78.605,5.411 -117.939,-33.925 -117.944,-82.3C-117.95,-130.636 -78.632,-169.936 -30.283,-169.958" style="fill:rgb(48,83,118);fill-rule:nonzero;"/>
            </g>
            <g transform="matrix(-0.938076,-0.346428,-0.346428,0.938076,488.740853,849.917441)">
                <path d="M-30.363,-169.944C17.973,-169.928 57.266,-130.637 57.274,-82.28C57.276,-33.945 17.992,5.4 -30.363,5.437C-78.653,5.432 -117.969,-33.962 -117.99,-82.302C-117.992,-130.638 -78.676,-169.954 -30.363,-169.944" style="fill:rgb(48,83,118);fill-rule:nonzero;"/>
            </g>
            <g transform="matrix(0.346327,-0.938114,-0.938114,-0.346327,320.651089,622.530752)">
                <path d="M-77.623,-54.151C-123.371,-54.114 -160.496,-17.125 -160.488,28.663C-160.457,74.439 -123.374,111.394 -77.623,111.415C-31.926,111.423 5.148,74.4 5.131,28.649C5.14,-17.125 -31.966,-54.146 -77.623,-54.151" style="fill:rgb(176,210,219);fill-rule:nonzero;"/>
            </g>
            <g transform="matrix(-0.346388,0.938091,0.938091,0.346388,597.849043,724.939131)">
                <path d="M77.605,-111.498C123.343,-111.497 160.455,-74.511 160.483,-28.735C160.497,17.019 123.388,54.081 77.605,54.027C31.917,54.058 -5.195,17.073 -5.184,-28.7C-5.189,-74.493 31.981,-111.489 77.605,-111.498" style="fill:rgb(176,210,219);fill-rule:nonzero;"/>
            </g>
            <g transform="matrix(0.983994,0.178202,0.178202,-0.983994,236.391459,745.808922)">
                <path d="M4.68,-0.417C-9.838,-0.42 -21.61,11.345 -21.61,25.843C-21.593,40.344 -9.838,52.105 4.68,52.108C19.151,52.108 30.931,40.343 30.909,25.882C30.917,11.325 19.16,-0.416 4.68,-0.417" style="fill:rgb(235,244,246);fill-rule:nonzero;"/>
            </g>
            <g transform="matrix(0.983861,0.178934,0.178934,-0.983861,508.635221,847.2248)">
                <path d="M4.696,-0.427C-9.784,-0.437 -21.516,11.322 -21.564,25.799C-21.577,40.297 -9.801,52.051 4.696,52.101C19.208,52.115 30.942,40.336 30.952,25.857C30.965,11.359 19.214,-0.413 4.696,-0.427" style="fill:rgb(235,244,246);fill-rule:nonzero;"/>
            </g>
            <g transform="matrix(1,0,0,1,627.6091,19.3138)">
                <path d="M0,576.486C-66.898,576.486 -132.239,552.804 -183.986,509.805C-236.338,466.303 -271.69,405.363 -283.529,338.212C-296.859,262.404 -279.878,185.936 -235.712,122.895C-191.544,59.85 -125.47,17.774 -49.659,4.419C-33.014,1.486 -16.077,0 0.682,0C67.576,0 132.913,23.683 184.658,66.688C237.001,110.191 272.34,171.122 284.163,238.256C297.516,314.078 280.546,390.558 236.379,453.607C192.211,516.659 126.13,558.731 50.308,572.073C33.674,575.002 16.747,576.486 0,576.486" style="fill:rgb(238,232,170);fill-rule:nonzero;"/>
            </g>
            <g transform="matrix(1,0,0,1,628.2907,600.1024)">
                <path d="M0,-585.1C-16.841,-585.1 -33.93,-583.639 -51.089,-580.616C-210.188,-552.587 -316.429,-400.912 -288.457,-241.828C-263.424,-99.85 -139.991,0.008 -0.682,0.008C16.148,0.008 33.227,-1.451 50.374,-4.47C209.495,-32.47 315.747,-184.168 287.727,-343.28C262.729,-485.216 139.312,-585.108 0,-585.1M0.016,-576.478C65.899,-576.478 130.254,-553.147 181.225,-510.782C206.524,-489.754 227.775,-464.784 244.387,-436.566C261.578,-407.362 273.303,-375.473 279.236,-341.785C285.884,-304.034 284.941,-266.116 276.435,-229.083C268.218,-193.309 253.323,-159.856 232.167,-129.655C211.01,-99.452 184.658,-74.027 153.846,-54.085C121.947,-33.44 86.632,-19.604 48.88,-12.961C32.491,-10.076 15.816,-8.614 -0.682,-8.614C-66.575,-8.614 -130.937,-31.941 -181.913,-74.299C-207.218,-95.327 -228.475,-120.298 -245.092,-148.519C-262.29,-177.727 -274.023,-209.624 -279.965,-243.321C-286.602,-281.066 -285.651,-318.978 -277.139,-356.004C-268.916,-391.773 -254.019,-425.222 -232.863,-455.42C-211.706,-485.621 -185.356,-511.045 -154.546,-530.989C-122.651,-551.634 -87.34,-565.475 -49.593,-572.124C-33.199,-575.013 -16.514,-576.477 0.013,-576.478L0.016,-576.478" style="fill:rgb(29,29,27);fill-rule:nonzero;"/>
            </g>
            <g transform="matrix(1,0,0,1,339.8341,234.3504)">
                <path d="M0,123.924C14.141,204.153 -31.848,286.091 -31.848,286.091C-49.251,325.702 7.646,338.788 7.646,338.788C7.646,338.788 69.087,295.019 77.185,266.858C85.302,238.735 -66.051,26.752 269.479,-32.351L237.368,-214.864C78.269,-186.835 -27.973,-35.16 0,123.924" style="fill:rgb(29,29,27);fill-rule:nonzero;"/>
            </g>
            <g transform="matrix(1,0,0,1,916.0182,195.9552)">
                <path d="M0,60.867C14.123,141.068 85.322,202.359 85.322,202.359C115.207,233.649 66.201,265.364 66.201,265.364C66.201,265.364 -6.43,245.236 -23.701,221.553C-40.935,197.899 28.85,-53.078 -306.705,6.044L-338.816,-176.468C-179.713,-204.497 -28.019,-98.227 0,60.867" style="fill:rgb(29,29,27);fill-rule:nonzero;"/>
            </g>
            <g transform="matrix(1,0,0,1,495.2594,6.9282)">
                <path d="M0,304.188C-26.133,155.691 10.538,25.126 81.942,12.559C153.312,0 232.431,110.165 258.564,258.633L0,304.188Z" style="fill:white;fill-rule:nonzero;"/>
            </g>
            <g transform="matrix(1,0,0,1,504.3971,7.8052)">
                <path d="M0,301.728C-26.145,153.211 6.416,23.362 72.805,11.682C139.158,0 214.166,110.89 240.318,259.396L0,301.728Z" style="fill:rgb(29,29,27);fill-rule:nonzero;"/>
            </g>
            <g transform="matrix(1,0,0,1,756.5182,509.0518)">
                <path d="M0,-323.089C-35.994,-316.754 -66.125,-296.927 -86.432,-269.795C-121.957,-266.768 -157.104,-260.573 -191.533,-251.278C-219.875,-269.841 -254.959,-278.194 -290.965,-271.84C-366.048,-258.622 -416.138,-187.027 -402.911,-112.011C-389.693,-36.938 -318.173,13.237 -243.047,0.011C-175.621,-11.85 -128.463,-70.934 -129.217,-137.277C-121.523,-138.833 -113.793,-140.181 -106.08,-141.351C-84.076,-78.739 -19.646,-39.332 47.875,-51.231C122.957,-64.466 173.039,-136.061 159.82,-211.135C146.604,-286.142 75.065,-336.326 0,-323.089" style="fill:rgb(111,111,110);fill-rule:nonzero;"/>
            </g>
            <g transform="matrix(1,0,0,1,754.821,499.4737)">
                <path d="M0,-323.09C-35.994,-316.782 -66.164,-296.937 -86.414,-269.832C-121.957,-266.759 -157.104,-260.565 -191.553,-251.298C-219.856,-269.861 -254.95,-278.214 -290.937,-271.85C-366.002,-258.642 -416.138,-187.009 -402.939,-112.04C-389.692,-36.966 -318.155,13.246 -243.086,0.018C-175.602,-11.869 -128.463,-70.953 -129.197,-137.296C-121.504,-138.853 -113.811,-140.192 -106.08,-141.369C-84.076,-78.759 -19.609,-39.342 47.857,-51.212C122.977,-64.485 173.057,-136.061 159.803,-211.153C146.621,-286.143 75.084,-336.336 0,-323.09" style="fill:white;fill-rule:nonzero;"/>
            </g>
            <g transform="matrix(-0.98484,0.173465,0.173465,0.98484,517.76239,445.926593)">
                <path d="M15.215,-174C63.52,-173.997 102.831,-134.675 102.839,-86.371C102.848,-38 63.53,1.339 15.215,1.338C-33.098,1.366 -72.411,-38.005 -72.446,-86.361C-72.4,-134.693 -33.106,-174.009 15.215,-174" style="fill:rgb(29,29,27);fill-rule:nonzero;"/>
            </g>
            <g transform="matrix(-0.984827,0.173541,0.173541,0.984827,808.722186,394.733012)">
                <path d="M15.192,-174.065C63.535,-174.073 102.826,-134.731 102.877,-86.414C102.842,-38.045 63.539,1.304 15.192,1.294C-33.091,1.302 -72.425,-38.064 -72.411,-86.438C-72.438,-134.729 -33.127,-174.042 15.192,-174.065" style="fill:rgb(29,29,27);fill-rule:nonzero;"/>
            </g>
            <g transform="matrix(-0.17346,-0.984841,-0.984841,0.17346,460.347553,290.591682)">
                <path d="M-81.437,-97.13C-127.218,-97.146 -164.306,-60.152 -164.278,-14.385C-164.278,31.374 -127.194,68.38 -81.437,68.372C-35.747,68.365 1.333,31.374 1.344,-14.377C1.321,-60.165 -35.773,-97.171 -81.437,-97.13" style="fill:rgb(221,209,84);fill-rule:nonzero;"/>
            </g>
            <g transform="matrix(0.17348,0.984837,0.984837,-0.17348,751.386541,239.291418)">
                <path d="M81.489,-68.475C127.256,-68.478 164.345,-31.453 164.326,14.308C164.36,60.04 127.239,97.061 81.489,97.06C35.798,97.068 -1.271,60.04 -1.324,14.309C-1.271,-31.477 35.823,-68.435 81.489,-68.475" style="fill:rgb(221,209,84);fill-rule:nonzero;"/>
            </g>
            <g transform="matrix(-0.173288,-0.984871,-0.984871,0.173288,474.327988,369.316581)">
                <path d="M-25.866,-30.809C-40.376,-30.802 -52.12,-19.042 -52.133,-4.537C-52.116,9.924 -40.363,21.717 -25.866,21.693C-11.388,21.712 0.387,9.962 0.364,-4.528C0.387,-19.035 -11.374,-30.812 -25.866,-30.809" style="fill:white;fill-rule:nonzero;"/>
            </g>
            <g transform="matrix(-0.172876,-0.984944,-0.984944,0.172876,766.125742,322.927345)">
                <path d="M-25.846,-30.814C-40.351,-30.832 -52.095,-19.104 -52.103,-4.591C-52.135,9.907 -40.392,21.667 -25.846,21.698C-11.351,21.719 0.404,9.951 0.389,-4.538C0.402,-19.071 -11.336,-30.814 -25.846,-30.814" style="fill:white;fill-rule:nonzero;"/>
            </g>
            <g transform="matrix(0.173616,0.984813,0.984813,-0.173616,569.89878,54.89716)">
                <path d="M155.265,-165.799C155.265,-165.799 135.77,-85.561 135.777,13.367C135.791,112.274 155.265,192.492 155.265,192.492C155.265,192.492 218.409,112.28 218.42,13.348C218.372,-85.591 155.265,-165.799 155.265,-165.799" style="fill:white;fill-rule:nonzero;"/>
            </g>
        </g>
    </g>
</svg>
