<svg id="Calque_1" data-name="Calque 1" xmlns="http://www.w3.org/2000/svg" viewBox="0 0 512 75.78"><defs><style>.cls-1{fill:#333c62;}.cls-2{fill:#70a8ba;}</style></defs><title>lesaviateursailes</title><path class="cls-1" d="M168.64,24.79a1.15,1.15,0,0,1-1.23,1.44l-4.18.22a1.17,1.17,0,0,1-1.45-1.29l-0.35-6.48a1.19,1.19,0,0,1,1.3-1.52l4.18-.22c0.94-.06,1.32.36,1.38,1.37Zm2.21,41c0.06,1-.28,1.46-1.22,1.51l-4.18.23A1.19,1.19,0,0,1,164,66.14L162.23,33.3a1.19,1.19,0,0,1,1.29-1.51l4.18-.23c0.94-.05,1.32.37,1.38,1.37Z"/><path class="cls-1" d="M267.8,45.59A1.1,1.1,0,0,0,269,44.23l-0.48-8.79c-0.32-5.91-4-9.68-14.15-9.13S240.65,31,241,36.93l0.93,17.14c0.32,5.91,4.06,9.68,14.29,9.12s13.55-4.71,13.23-10.61l-0.06-1.22a1.19,1.19,0,0,0-1.44-1.3l-3.67.2a1.17,1.17,0,0,0-1.29,1.44l0,0.78c0.15,3-1.18,4.91-6.94,5.22s-7.31-1.49-7.47-4.44L248.39,50l-0.18-3.34-0.27-5.11-0.22-4,0-.53c-0.16-2.88,1.47-4.92,6.94-5.21s7.31,1.56,7.46,4.44l0.25,4.54-12.6.68L250,46.56Z"/><path class="cls-1" d="M353,52.8c-3.93,0-6.3-1.07-6.44-3.44l-0.08-1.52a1.07,1.07,0,0,0-1.29-1.23l-3.81.2a1.11,1.11,0,0,0-1.16,1.37l0.1,1.8c0.23,4.29,4,8.11,13,7.94Z"/><path class="cls-1" d="M360.51,37.76l-11-3.16c-1.32-.36-3.11-1.28-3.2-3.15l-0.07-1.23c-0.12-2.35,1.71-3.66,5.31-4.07l-0.27-5c-8.71.84-11.53,5.2-11.3,9.46l0.14,2.66c0.19,3.61,3.29,6.19,6,7l11,3.16c2.42,0.67,3.9,1.52,4,3.26l0.1,1.94c0.14,2.46-2.34,3.81-6.45,4.15l0.27,5.12c9.21-.69,12.77-5,12.54-9.32l-0.22-4C367.2,41.09,364.55,38.92,360.51,37.76Z"/><path class="cls-1" d="M353.34,26c4.06-.11,6.31,1,6.44,3.46l0.09,1.73a1.08,1.08,0,0,0,1.3,1.23l3.74-.2a1.07,1.07,0,0,0,1.22-1.37L366,29.16c-0.24-4.38-3.74-8.5-13-8.17Z"/><path class="cls-1" d="M113,62.8a14.61,14.61,0,0,1-7.57,2.82c-3.6.2-5.25-.95-5.4-3.75L99.9,60.43c-0.15-2.81.92-4.46,4.53-4.65l8.13-.44L112.27,50l-9.58.52c-6.7.36-9.8,4.57-9.54,9.25l0.19,3.46c0.25,4.69,3.93,8.53,10.63,8.17a17.09,17.09,0,0,0,9.28-3.31Z"/><path class="cls-1" d="M106.3,34.3c-9.87.53-13.4,4.7-13.09,10.46l0.06,1.08a1.17,1.17,0,0,0,1.37,1.37L98.38,47a1.19,1.19,0,0,0,1.29-1.51l0-.58c-0.16-3,1.41-4.77,6.88-5.06s7.09,1.56,7.25,4.52l0.3,5.55,0.29,5.32,0.33,6.2L115,66.7l0.26,2.08c0.12,1,.44,1.42,1.44,1.36l3.89-.21c0.94-.05,1.28-0.5,1.22-1.51l-1.36-25.14C120.12,37.52,116.45,33.75,106.3,34.3Z"/><path class="cls-1" d="M218,34.62l6.91-.38,2.33-.12,5.1-.27a1.22,1.22,0,0,0,1.29-1.52l-0.15-2.88A1.15,1.15,0,0,0,232,28.23l-7.43.41-0.39-7.28c-0.05-1-.44-1.42-1.37-1.37l-4.25.23a1.22,1.22,0,0,0-1.29,1.52L217.71,29l-0.43,0-3.51.48a1.2,1.2,0,0,0-1.3,1.44l0.14,2.52A1.2,1.2,0,0,0,214,34.84l2-.11Z"/><path class="cls-1" d="M234.88,57.91L233.5,58c-5.4.3-7.37-1.34-7.53-4.36L225,36.06l-6.91.38,1,18.28c0.33,6.34,3.55,9.71,13.71,9.16l2.38-.13a1.17,1.17,0,0,0,1.3-1.45l-0.17-3A1.22,1.22,0,0,0,234.88,57.91Z"/><path class="cls-1" d="M297.73,52.49a14.15,14.15,0,0,1-7.44,2.72c-4,.21-5.42-1.44-5.58-4.47l-1.3-24A1.22,1.22,0,0,0,282,25.4l-4.18.23c-0.94,0-1.27.5-1.22,1.51L278,52.85c0.28,5.33,4,9,10.65,8.6A16.93,16.93,0,0,0,298,58.18Z"/><path class="cls-1" d="M303.57,24.23l-4.25.23c-0.93,0-1.27.5-1.21,1.52l1.35,25.13,0.3,5.62L300,58.87c0.13,1,.44,1.36,1.45,1.3l4-.22a1.13,1.13,0,0,0,1.24-1.44L304.94,25.6A1.17,1.17,0,0,0,303.57,24.23Z"/><path class="cls-1" d="M322.2,27.78l-0.47-3.16a1.2,1.2,0,0,0-1.44-1.3l-3.82.21a1.17,1.17,0,0,0-1.3,1.45l1.78,32.92a1.2,1.2,0,0,0,1.45,1.37l4.17-.22a1.17,1.17,0,0,0,1.22-1.51L322.63,36l-0.14-2.58Z"/><path class="cls-1" d="M333.08,22.06a15.28,15.28,0,0,0-9.17,4l0.32,5.86a19.44,19.44,0,0,1,9.18-3.76,1.3,1.3,0,0,0,1.37-1.52l-0.18-3.31A1.24,1.24,0,0,0,333.08,22.06Z"/><path class="cls-1" d="M142.93,60.35h0l-2.11-5.43h0l-7.85-20a1.62,1.62,0,0,0-1.66-1.36l-4.39.24c-0.94,0-1.49.59-1.14,1.51l12.87,32.4c0.34,0.92.57,1.26,1.51,1.22l4.83-.26a1.07,1.07,0,0,0,1-.49Z"/><path class="cls-1" d="M154.74,32.26l-4,.21c-0.94,0-1.19.65-1.44,1.52l-6.09,21.13c-0.06.2-.11,0.42-0.15,0.64l3.74,9.61L156,33.63C156.28,32.68,155.67,32.21,154.74,32.26Z"/><path class="cls-1" d="M199.19,58.15A14.63,14.63,0,0,1,191.61,61c-3.6.19-5.25-.95-5.4-3.76l-0.08-1.44c-0.15-2.81.91-4.46,4.52-4.65l8.13-.44-0.29-5.32-9.58.52c-6.7.36-9.8,4.57-9.54,9.25l0.19,3.46c0.25,4.69,3.93,8.53,10.63,8.17a17.09,17.09,0,0,0,9.28-3.31Z"/><path class="cls-1" d="M192.52,29.64c-9.86.53-13.4,4.69-13.08,10.46l0.06,1.08c0.05,1,.44,1.42,1.37,1.37l3.75-.2a1.19,1.19,0,0,0,1.29-1.52l0-.58c-0.16-3,1.4-4.77,6.88-5.07s7.09,1.57,7.25,4.53l0.29,5.54,0.29,5.33,0.33,6.2L201.21,62l0.26,2.08c0.13,1,.43,1.42,1.44,1.36l3.89-.21c0.94-.05,1.27-0.5,1.22-1.51l-1.36-25.14C206.36,32.87,202.68,29.1,192.52,29.64Z"/><path class="cls-2" d="M49.45,57.37A1.09,1.09,0,0,0,50.6,56l-0.48-8.79c-0.32-5.91-4-9.69-14.14-9.14S22.29,42.8,22.61,48.71l0.93,17.15c0.32,5.9,4.06,9.68,14.29,9.12S51.37,70.28,51,64.37L51,63.15a1.19,1.19,0,0,0-1.44-1.29l-3.68.2a1.16,1.16,0,0,0-1.29,1.44l0,0.79c0.16,3-1.18,4.91-6.94,5.22S30.37,68,30.21,65.06L30,61.77l-0.18-3.33-0.27-5.11-0.22-4,0-.53c-0.16-2.88,1.47-4.92,6.94-5.21s7.31,1.56,7.46,4.44L44,52.54l-12.6.68,0.28,5.12Z"/><path class="cls-2" d="M71.08,68c-3.93,0-6.31-1.07-6.43-3.45l-0.08-1.5a1.08,1.08,0,0,0-1.29-1.24L59.45,62A1.1,1.1,0,0,0,58.3,63.4l0.09,1.8c0.23,4.29,4,8.11,13,7.94Z"/><path class="cls-2" d="M78.62,53l-11-3.17c-1.32-.36-3.11-1.28-3.21-3.15l-0.07-1.23c-0.13-2.34,1.71-3.66,5.3-4.07l-0.27-5c-8.72.84-11.53,5.2-11.29,9.46l0.14,2.67c0.19,3.6,3.29,6.18,6,7l11,3.17c2.42,0.66,3.91,1.52,4,3.25l0.1,1.94c0.13,2.45-2.34,3.81-6.46,4.15l0.28,5.12c9.2-.7,12.77-5,12.53-9.33l-0.22-4C85.3,56.31,82.65,54.14,78.62,53Z"/><path class="cls-2" d="M71.45,41.25c4.06-.1,6.3,1,6.43,3.47L78,46.44a1.07,1.07,0,0,0,1.3,1.23l3.74-.2a1.07,1.07,0,0,0,1.23-1.37l-0.09-1.73c-0.23-4.38-3.74-8.5-13-8.17Z"/><path class="cls-2" d="M13.88,69.41l-0.47,0q-4.26.23-4.47-3.7l-0.32-6L6.85,27c-0.05-1-.44-1.43-1.38-1.37l-4.18.23A1.19,1.19,0,0,0,0,27.39L2.13,66.7c0.19,3.56,1.27,6,3.24,7.32a12,12,0,0,0,7.46,1.73l1.39-.08A1.36,1.36,0,0,0,15.66,74l-0.17-3.21A1.28,1.28,0,0,0,13.88,69.41Z"/><path class="cls-2" d="M475.74,34.37A1.1,1.1,0,0,0,476.89,33l-0.47-8.79c-0.32-5.91-4-9.68-14.14-9.14S448.58,19.79,448.9,25.7l0.93,17.14c0.32,5.91,4.06,9.67,14.28,9.13s13.55-4.7,13.23-10.61l-0.07-1.23a1.19,1.19,0,0,0-1.44-1.29l-3.67.2a1.16,1.16,0,0,0-1.29,1.44l0,0.8c0.16,2.95-1.18,4.9-6.94,5.22s-7.31-1.49-7.47-4.44l-0.18-3.29-0.18-3.34-0.28-5.11-0.22-4,0-.54c-0.15-2.88,1.47-4.92,6.94-5.22S469.87,22.11,470,25l0.25,4.54-12.59.68,0.27,5.12Z"/><path class="cls-2" d="M464.29,9.7a2,2,0,0,1-1.68,1l-3.31.18c-0.87,0-1.24-.29-0.79-1.26l3.83-7.93a2,2,0,0,1,1.8-1.4L468.61,0c1-.05,1.26.51,0.72,1.34Z"/><path class="cls-2" d="M497.38,45c-3.93,0-6.3-1.07-6.44-3.44l-0.08-1.52a1.07,1.07,0,0,0-1.3-1.23l-3.81.21a1.1,1.1,0,0,0-1.16,1.36l0.1,1.8c0.23,4.29,4,8.11,13,7.94Z"/><path class="cls-2" d="M504.91,30l-11-3.16c-1.33-.37-3.11-1.28-3.2-3.15l-0.07-1.23c-0.13-2.34,1.71-3.66,5.3-4.06l-0.28-5.05c-8.72.84-11.52,5.2-11.29,9.46l0.14,2.67c0.2,3.6,3.29,6.18,6,7l11,3.16c2.43,0.66,3.91,1.52,4,3.25l0.1,1.94c0.14,2.45-2.35,3.8-6.46,4.15L499.45,50c9.21-.69,12.77-5,12.54-9.32l-0.22-4C511.58,33.3,508.95,31.13,504.91,30Z"/><path class="cls-2" d="M497.74,18.25c4.07-.11,6.3,1,6.43,3.46l0.09,1.72a1.08,1.08,0,0,0,1.29,1.24l3.74-.2a1.08,1.08,0,0,0,1.23-1.37l-0.09-1.73c-0.24-4.38-3.74-8.5-13-8.17Z"/><path class="cls-2" d="M394.85,47.59a14.61,14.61,0,0,1-7.57,2.83c-3.6.19-5.25-.95-5.41-3.76l-0.08-1.44c-0.15-2.81.92-4.45,4.52-4.65l8.13-.44-0.28-5.33-9.58.51c-6.7.36-9.79,4.58-9.54,9.26L375.23,48c0.25,4.68,3.93,8.53,10.63,8.17a17.12,17.12,0,0,0,9.28-3.32Z"/><path class="cls-2" d="M388.19,19.08c-9.87.54-13.4,4.69-13.09,10.46l0.06,1.08c0.05,1,.44,1.42,1.37,1.37l3.74-.2a1.19,1.19,0,0,0,1.29-1.51l0-.58c-0.16-3,1.4-4.77,6.87-5.06s7.1,1.56,7.26,4.52L396,34.7,396.26,40l0.33,6.2,0.29,5.26,0.25,2.08c0.13,1,.44,1.42,1.45,1.36l3.88-.21a1.17,1.17,0,0,0,1.23-1.51l-1.36-25.14C402,22.31,398.34,18.53,388.19,19.08Z"/><path class="cls-2" d="M442.17,46.3l-0.48,0c-2.84.15-4.32-1.08-4.47-3.69l-0.32-6L435.14,3.91c-0.05-1-.44-1.42-1.38-1.37l-4.18.23a1.19,1.19,0,0,0-1.29,1.52l2.12,39.31c0.2,3.57,1.27,6,3.24,7.32a12,12,0,0,0,7.46,1.73l1.39-.07a1.36,1.36,0,0,0,1.44-1.69l-0.18-3.2A1.27,1.27,0,0,0,442.17,46.3Z"/><path class="cls-2" d="M418.12,11.33a1.14,1.14,0,0,1-1.22,1.43l-4.17.23a1.17,1.17,0,0,1-1.45-1.3l-0.35-6.48a1.19,1.19,0,0,1,1.29-1.52l4.18-.22c0.94-.05,1.32.36,1.37,1.37Zm2.21,41c0.05,1-.28,1.46-1.22,1.51l-4.17.22a1.19,1.19,0,0,1-1.45-1.36l-1.78-32.85A1.2,1.2,0,0,1,413,18.32l4.17-.22c0.94-.05,1.32.36,1.38,1.37Z"/></svg>